HIERARCHY
ROOT Hips
{
	OFFSET 0.000000 0.000000 0.000000
	CHANNELS 6 Xposition Yposition Zposition Xrotation Yrotation Zrotation
	JOINT LeftUpLeg_virtual
	{
		OFFSET 0.000000 0.000000 0.000000
		CHANNELS 3 Xrotation Yrotation Zrotation
		JOINT LeftUpLeg
		{
			OFFSET 10.205400 -3.823500 0.155100
			CHANNELS 3 Xrotation Yrotation Zrotation
			JOINT LeftLeg
			{
				OFFSET 0.708757 -12.982077 0.567790
				CHANNELS 3 Xrotation Yrotation Zrotation
				JOINT LeftFoot
				{
					OFFSET -0.708756 -10.717838 -2.184338
					CHANNELS 3 Xrotation Yrotation Zrotation
					JOINT LeftToeBase
					{
						OFFSET 0.108149 -7.191104 7.560241
						CHANNELS 3 Xrotation Yrotation Zrotation
						JOINT LeftToe_End
						{
							OFFSET 0.070230 0.081724 4.490308
							CHANNELS 3 Xrotation Yrotation Zrotation
							End Site
							{
								OFFSET 0 0 0
							}
						}
					}
				}
			}
		}
	}
	JOINT RightUpLeg_virtual
	{
		OFFSET 0.000000 0.000000 0.000000
		CHANNELS 3 Xrotation Yrotation Zrotation
		JOINT RightUpLeg
		{
			OFFSET -10.205400 -3.823500 0.005500
			CHANNELS 3 Xrotation Yrotation Zrotation
			JOINT RightLeg
			{
				OFFSET -0.708756 -12.982134 0.610632
				CHANNELS 3 Xrotation Yrotation Zrotation
				JOINT RightFoot
				{
					OFFSET 0.708754 -10.717769 -1.945823
					CHANNELS 3 Xrotation Yrotation Zrotation
					JOINT RightToeBase
					{
						OFFSET -0.108140 -7.191069 7.372968
						CHANNELS 3 Xrotation Yrotation Zrotation
						JOINT RightToe_End
						{
							OFFSET -0.070227 0.081735 4.479403
							CHANNELS 3 Xrotation Yrotation Zrotation
							End Site
							{
								OFFSET 0 0 0
							}
						}
					}
				}
			}
		}
	}
	JOINT Spine_virtual
	{
		OFFSET 0.000000 0.000000 0.000000
		CHANNELS 3 Xrotation Yrotation Zrotation
		JOINT Spine
		{
			OFFSET 0.000000 6.876099 0.125700
			CHANNELS 3 Xrotation Yrotation Zrotation
			JOINT Spine1
			{
				OFFSET 0.000000 5.730043 0.104720
				CHANNELS 3 Xrotation Yrotation Zrotation
				JOINT Spine1_split
				{
					OFFSET 0.000000 5.730043 0.104720
					CHANNELS 3 Xrotation Yrotation Zrotation
					JOINT Spine2
					{
						OFFSET 0.000000 5.730043 0.104720
						CHANNELS 3 Xrotation Yrotation Zrotation
						JOINT Neck_virtual
						{
							OFFSET 0.000000 0.000000 0.000000
							CHANNELS 3 Xrotation Yrotation Zrotation
							JOINT Neck
							{
								OFFSET 0.000000 10.314075 0.188496
								CHANNELS 3 Xrotation Yrotation Zrotation
								JOINT Head
								{
									OFFSET 0.000000 7.643700 -2.377400
									CHANNELS 3 Xrotation Yrotation Zrotation
									JOINT HeadTop_End
									{
										OFFSET 0.000000 43.788605 -13.619600
										CHANNELS 3 Xrotation Yrotation Zrotation
										End Site
										{
											OFFSET 0 0 0
										}
									}
								}
							}
						}
						JOINT LeftShoulder_virtual
						{
							OFFSET 0.000000 0.000000 0.000000
							CHANNELS 3 Xrotation Yrotation Zrotation
							JOINT LeftShoulder
							{
								OFFSET 2.196100 4.412489 0.087492
								CHANNELS 3 Xrotation Yrotation Zrotation
								JOINT LeftShoulder_split
								{
									OFFSET 2.196100 4.412489 0.087492
									CHANNELS 3 Xrotation Yrotation Zrotation
									JOINT LeftArm
									{
										OFFSET 8.771219 -2.981674 -0.026999
										CHANNELS 3 Xrotation Yrotation Zrotation
										JOINT LeftForeArm
										{
											OFFSET 8.512804 0.000000 -0.000000
											CHANNELS 3 Xrotation Yrotation Zrotation
											JOINT LeftHand
											{
												OFFSET 18.484802 0.000000 -0.000000
												CHANNELS 3 Xrotation Yrotation Zrotation
												End Site
												{
													OFFSET 0 0 0
												}
											}
										}
									}
								}
							}
						}
						JOINT RightShoulder_virtual
						{
							OFFSET 0.000000 0.000000 0.000000
							CHANNELS 3 Xrotation Yrotation Zrotation
							JOINT RightShoulder
							{
								OFFSET -2.196100 4.412496 0.070690
								CHANNELS 3 Xrotation Yrotation Zrotation
								JOINT RightShoulder_split
								{
									OFFSET -2.196100 4.412496 0.070690
									CHANNELS 3 Xrotation Yrotation Zrotation
									JOINT RightArm
									{
										OFFSET -8.771282 -2.981682 -0.094208
										CHANNELS 3 Xrotation Yrotation Zrotation
										JOINT RightForeArm
										{
											OFFSET -8.494598 0.000000 0.000000
											CHANNELS 3 Xrotation Yrotation Zrotation
											JOINT RightHand
											{
												OFFSET -18.483803 0.000000 0.000001
												CHANNELS 3 Xrotation Yrotation Zrotation
												End Site
												{
													OFFSET 0 0 0
												}
											}
										}
									}
								}
							}
						}
					}
				}
			}
		}
	}
}
MOTION
Frames: 8
Frame Time: 0.03333333
0.151892 29.331730 -2.571236 0.000000 0.000000 0.000000 6.382558 -55.758099 9.919759 -32.125873 14.054808 26.574120 39.778892 -15.962499 -3.342425 -10.976468 0.291361 -12.313551 0.680884 -0.834817 -2.412290 0.000000 0.000000 0.000000 5.353611 -53.795888 9.193195 -28.771137 -4.562176 -30.105999 45.276617 19.200676 -5.705878 -24.964965 -10.493685 29.388310 7.024826 15.313883 -22.120543 0.000000 0.000000 0.000000 3.134466 -51.250222 8.231841 3.707585 2.172334 -2.953300 12.022671 -3.723943 -6.172277 -0.192147 -0.356625 0.078563 0.000000 0.000000 0.000000 13.924202 -1.705401 -5.407017 -17.712851 13.644140 0.614493 -10.146836 43.806771 12.697568 0.000000 0.000000 0.000000 12.346726 -2.825192 -7.367407 1.042069 -5.351582 -7.493845 -2.334625 -2.688907 -1.782234 -32.084165 -1.174243 -22.917187 2.359438 -21.623068 12.803143 0.000000 0.000000 0.000000 15.602010 -1.996934 -6.349649 -11.560081 27.183938 14.382859 9.430722 1.929978 -0.530628 -66.571094 -32.678528 2.772678 -103.134094 63.600918 103.947536 0.000000 0.000000 0.000000 
0.143035 29.289675 -2.470053 0.000000 0.000000 0.000000 6.402893 -55.097302 9.626720 -32.679300 14.054130 26.928530 40.182771 -16.074553 -3.358480 -10.500145 0.362867 -12.873479 0.089119 -0.870080 -2.095003 0.000000 0.000000 0.000000 5.483890 -53.274656 9.105977 -28.537680 -4.265354 -30.083148 44.732780 19.253895 -5.865596 -24.193548 -10.246190 30.604134 6.483445 15.390170 -22.239449 0.000000 0.000000 0.000000 3.143108 -50.769725 7.917127 3.585010 2.327051 -2.707859 11.717778 -3.934116 -6.212586 -0.207384 -0.447584 0.085861 0.000000 0.000000 0.000000 13.726145 -1.819460 -5.396912 -16.899362 13.576402 0.564550 -11.006248 43.956710 13.213617 0.000000 0.000000 0.000000 12.221503 -3.008084 -7.259500 0.987926 -4.699392 -8.072940 -0.931596 -2.765690 -1.511448 -31.476326 -1.905008 -23.467811 2.279051 -21.882768 12.515910 0.000000 0.000000 0.000000 15.268908 -2.224563 -6.235851 -11.170850 26.117219 14.239433 10.725010 2.068628 -0.248525 -64.908251 -33.522015 3.580276 -103.637923 63.505077 104.282270 0.000000 0.000000 0.000000 
0.120672 29.124746 -2.355431 0.000000 0.000000 0.000000 6.419226 -54.053728 9.414093 -33.342781 13.616695 27.153740 40.944525 -16.059262 -3.505774 -10.752394 0.863791 -12.932920 -0.318842 -0.839541 -2.037938 0.000000 0.000000 0.000000 5.741457 -52.193775 9.092737 -28.467416 -3.954496 -30.127763 45.049606 19.267938 -6.136433 -23.642934 -10.420182 32.357352 5.626302 15.550527 -22.077818 0.000000 0.000000 0.000000 3.027870 -49.541292 7.551815 3.353162 2.537565 -2.313715 11.283890 -4.217001 -6.026397 -0.134017 -0.547129 0.045560 0.000000 0.000000 0.000000 13.522158 -2.000167 -5.217045 -15.811022 12.689094 0.513595 -12.325309 43.751282 13.591588 0.000000 0.000000 0.000000 11.978435 -3.294305 -6.939242 0.862175 -4.361880 -9.116971 0.269473 -2.519750 -1.407431 -28.963711 -3.267526 -23.258251 1.562790 -22.620547 11.322303 0.000000 0.000000 0.000000 14.843398 -2.543080 -5.883436 -10.639076 24.038632 14.196155 10.268879 3.150180 -0.218117 -61.372556 -34.169507 5.397873 -99.474383 64.209775 100.107344 0.000000 0.000000 0.000000 
0.104235 28.832424 -2.245327 0.000000 0.000000 0.000000 6.451128 -52.920695 9.355144 -34.077491 12.720690 27.078563 42.184468 -15.795968 -3.759571 -12.077439 1.794094 -12.365233 0.264214 -0.743149 -2.398362 0.000000 0.000000 0.000000 5.994536 -50.945517 9.196108 -28.574668 -3.589036 -30.296633 46.469516 19.137536 -6.582167 -24.188767 -11.243127 33.917312 5.285597 15.643749 -21.778808 0.000000 0.000000 0.000000 2.911720 -47.673324 7.335007 3.032404 2.786367 -1.794768 10.732855 -4.539495 -5.661434 -0.055775 -0.559594 -0.039371 0.000000 0.000000 0.000000 13.268939 -2.238281 -4.923385 -14.632690 11.007838 0.425948 -13.506079 43.229466 13.470678 0.000000 0.000000 0.000000 11.656781 -3.661296 -6.488141 0.644072 -4.384924 -10.573190 1.158583 -1.971457 -1.228399 -25.179453 -4.853751 -22.247560 0.335961 -23.536041 9.427229 0.000000 0.000000 0.000000 14.372502 -2.914596 -5.383789 -9.982165 21.169335 14.147965 8.790355 4.820275 -0.538762 -56.328580 -34.657923 8.045585 -89.583088 65.080795 90.274248 0.000000 0.000000 0.000000 
0.116810 28.381306 -2.106884 0.000000 0.000000 0.000000 6.496352 -51.854967 9.585031 -35.192164 11.166578 26.717509 44.133769 -15.686346 -3.956520 -13.920896 2.976621 -12.367539 2.101107 -0.576803 -3.068104 0.000000 0.000000 0.000000 6.050483 -49.764417 9.431001 -29.009016 -3.050571 -30.738095 49.430380 18.682572 -7.235067 -26.149251 -12.902093 34.752484 6.095563 15.567794 -21.416676 0.000000 0.000000 0.000000 2.940958 -45.478780 7.451611 2.648613 3.056902 -1.218348 10.085601 -4.874106 -5.205625 0.031529 -0.503827 -0.136469 0.000000 0.000000 0.000000 12.972158 -2.518233 -4.604918 -13.539189 8.685346 0.212356 -13.822659 42.388560 12.529151 0.000000 0.000000 0.000000 11.278609 -4.094675 -6.003676 0.319340 -4.782984 -12.313346 1.612675 -1.078129 -0.907277 -20.854260 -6.054643 -20.837128 -1.062315 -24.207218 7.148542 0.000000 0.000000 0.000000 13.903376 -3.305416 -4.837487 -9.249228 17.804053 13.952878 6.443082 6.365843 -0.311590 -50.433246 -34.715041 11.208410 -73.267733 64.665116 73.974541 0.000000 0.000000 0.000000 
0.151330 27.779108 -2.012266 0.000000 0.000000 0.000000 6.526875 -50.715254 10.161508 -36.768681 8.934349 25.958747 46.834307 -15.773453 -4.038179 -16.075721 4.204144 -13.053840 4.292117 -0.394235 -3.582087 0.000000 0.000000 0.000000 5.761244 -48.674332 9.856557 -29.764158 -2.205815 -31.582603 54.129099 17.927119 -8.104380 -29.113306 -15.240071 35.117076 7.724049 15.407114 -21.031990 0.000000 0.000000 0.000000 2.964160 -43.222356 7.864425 2.283690 3.340734 -0.670140 9.342828 -5.192533 -4.741477 0.119054 -0.451809 -0.214339 0.000000 0.000000 0.000000 12.643167 -2.813996 -4.325880 -12.776069 5.945515 -0.142796 -12.795325 41.270479 10.638707 0.000000 0.000000 0.000000 10.849148 -4.554158 -5.566706 -0.122412 -5.468001 -14.260286 1.791109 -0.134929 -0.802803 -16.743891 -6.555277 -19.751908 -2.205976 -24.563443 4.878724 0.000000 0.000000 0.000000 13.418817 -3.693009 -4.321225 -8.553115 14.259418 13.582679 3.330769 6.602994 0.120297 -44.845451 -34.147971 14.275861 -54.494302 61.073059 55.035649 0.000000 0.000000 0.000000 
0.205563 27.021946 -1.971954 0.000000 0.000000 0.000000 6.332982 -49.326042 10.911564 -38.755999 6.147201 24.628253 50.201423 -15.870409 -3.972879 -18.180376 5.306063 -14.015640 5.852190 -0.183244 -3.715060 0.000000 0.000000 0.000000 5.104695 -47.616363 10.446809 -30.664343 -0.782633 -32.926576 60.208022 17.093964 -9.165549 -32.325366 -17.948154 35.984930 8.770181 15.387188 -20.675836 0.000000 0.000000 0.000000 2.864142 -40.937978 8.462881 2.041365 3.617472 -0.235593 8.546496 -5.477965 -4.285054 0.146295 -0.368747 -0.222735 0.000000 0.000000 0.000000 12.286908 -3.100588 -4.060885 -12.551914 3.055658 -0.663504 -10.385887 39.700034 7.958349 0.000000 0.000000 0.000000 10.353445 -4.959473 -5.194013 -0.678823 -6.515109 -16.280897 1.550937 0.708322 -0.974554 -13.373951 -6.377039 -19.580636 -2.708764 -24.953104 2.911374 0.000000 0.000000 0.000000 12.906833 -4.016978 -3.852088 -8.010251 11.113853 13.242887 0.378085 5.750369 0.687193 -40.805121 -32.784433 16.675709 -39.300420 53.797251 39.300748 0.000000 0.000000 0.000000 
0.269156 26.142151 -1.967987 0.000000 0.000000 0.000000 5.798045 -47.681230 11.599761 -41.451810 2.790608 22.791137 54.246991 -15.984651 -3.602486 -19.339151 6.101102 -15.218338 6.318863 0.064135 -3.620518 0.000000 0.000000 0.000000 4.326620 -46.354223 11.076566 -31.185756 1.108219 -34.567604 66.835395 16.301944 -10.408437 -35.456151 -20.885585 37.657094 8.498571 15.628053 -20.372330 0.000000 0.000000 0.000000 2.518836 -38.696901 9.082622 2.002811 3.916356 0.055589 7.754170 -5.724382 -3.760519 0.128535 -0.326694 -0.107308 0.000000 0.000000 0.000000 11.896549 -3.314770 -3.740760 -13.051949 0.331693 -1.341035 -6.842157 37.652517 4.850656 0.000000 0.000000 0.000000 9.811862 -5.290602 -4.796701 -1.336389 -7.961541 -18.108196 0.761946 1.523547 -1.713466 -10.951874 -5.660578 -20.579428 -2.392834 -25.789365 1.391053 0.000000 0.000000 0.000000 12.332234 -4.277572 -3.380900 -7.723838 8.788321 13.276422 -1.990739 4.877757 1.239016 -39.479777 -30.368257 17.844060 -29.596279 44.359118 28.544086 0.000000 0.000000 0.000000 
